# xmcd
#
# Track frame offsets:
#	150
#	15076
#	31416
#	45975
#	61988
#	78293
#	94179
#	107310
#	125139
#	137386
#
# Disc length: 2023 seconds
#
# Revision: 0
# Processed by: cddbd v1.5.2PL0 Copyright (c) Steve Scherf et al.
# Submitted via: EasyCDDAExtractor 9.1.3.1
#
DISCID=6b07e50a
DTITLE=Ed Bruce - Tell 'Em I've Gone Crazy
DYEAR=1984
DGENRE=Country
TTITLE0=If I Just Knew What To Say
TTITLE1=She Never Could Dance
TTITLE2=It's All In Your Mind
TTITLE3=Straight Shooter
TTITLE4=The Devil Inside
TTITLE5=Tell 'Em I've Gone Crazy
TTITLE6=Old Time's Sake
TTITLE7=Birds Of Paradise
TTITLE8=Someone Who Would Care
TTITLE9=If She Just Helps Me Get Over You
EXTD=
EXTT0=
EXTT1=
EXTT2=
EXTT3=
EXTT4=
EXTT5=
EXTT6=
EXTT7=
EXTT8=
EXTT9=
PLAYORDER=
